<svg width="25" height="25" viewBox="0 0 25 25" fill="none" xmlns="http://www.w3.org/2000/svg">
<circle cx="12.5" cy="12.5" r="12.5" fill="#57CAD5"/>
<path d="M13.08 20.3C12.28 20.3 11.56 20.14 10.92 19.82C10.28 19.4867 9.73333 19.0067 9.28 18.38C8.82667 17.7533 8.48 17 8.24 16.12C8.01333 15.24 7.9 14.2533 7.9 13.16C7.9 12.0267 8.02 11.0133 8.26 10.12C8.51333 9.22667 8.87333 8.46667 9.34 7.84C9.80667 7.21333 10.3667 6.73333 11.02 6.4C11.6733 6.06667 12.4 5.9 13.2 5.9C14.0133 5.9 14.7333 6.06667 15.36 6.4C16 6.73333 16.54 7.21333 16.98 7.84C17.42 8.46667 17.7533 9.22 17.98 10.1C18.22 10.9667 18.34 11.9467 18.34 13.04C18.34 14.16 18.22 15.1667 17.98 16.06C17.74 16.9533 17.3867 17.72 16.92 18.36C16.4667 18.9867 15.9133 19.4667 15.26 19.8C14.62 20.1333 13.8933 20.3 13.08 20.3ZM13.12 18.14C14.0133 18.14 14.7067 17.7067 15.2 16.84C15.7067 15.96 15.96 14.7133 15.96 13.1C15.96 11.4867 15.7067 10.2467 15.2 9.38C14.7067 8.5 14.0133 8.06 13.12 8.06C12.2267 8.06 11.5267 8.5 11.02 9.38C10.5267 10.2467 10.28 11.4867 10.28 13.1C10.28 14.7133 10.5267 15.96 11.02 16.84C11.5267 17.7067 12.2267 18.14 13.12 18.14Z" fill="white"/>
</svg>
